C:\GBW_MyPrograms\KinderuniversiteitApp\Resultaten\Ellis\MrImpossible_v1.mot
version=1
nRows=18
nColumns=31
inDegrees=yes
endheader
                time	         pelvis_tilt	           pelvis_tx	           pelvis_ty	       hip_flexion_r	        knee_angle_r	       ankle_angle_r	       hip_flexion_l	        knee_angle_l	       ankle_angle_l	    lumbar_extension	          arm_flex_r	          arm_flex_l	hamstrings_r/activation	bifemsh_r/activation	glut_max_r/activation	iliopsoas_r/activation	rect_fem_r/activation	  vasti_r/activation	gastroc_r/activation	 soleus_r/activation	tib_ant_r/activation	hamstrings_l/activation	bifemsh_l/activation	glut_max_l/activation	iliopsoas_l/activation	rect_fem_l/activation	  vasti_l/activation	gastroc_l/activation	 soleus_l/activation	tib_ant_l/activation	
          0.75049066	         -1.37748802	          0.98857566	          1.02646398	         10.76960835	        -24.39594516	          5.42776038	         29.53750881	        -52.27416482	         -5.31660655	         -3.52745952	         -3.30631964	         -3.30631711	          0.53130805	          0.63970714	          0.51853213	          0.67763781	          0.60849702	          0.50152064	          0.06359497	          0.05284298	          0.91429525	          0.16150866	          0.65306638	          0.23410349	          0.79065872	          0.73440365	          0.41788434	          0.34854318	          0.08178399	          0.86855866	
          0.75799556	         -1.42661378	          0.99820219	          1.01965891	         10.03980696	        -23.82550939	          7.32342020	         30.38317987	        -51.56428369	         -4.20583150	         -3.50218298	         -3.27198857	         -3.27198585	          0.50975534	          0.62473978	          0.53683428	          0.65777612	          0.61661142	          0.52967174	          0.06749650	          0.05153961	          0.85719383	          0.15521248	          0.65014980	          0.24840919	          0.78686457	          0.72774249	          0.42030888	          0.33005950	          0.07560743	          0.87426334	
          0.76550047	         -1.47393745	          1.00789386	          1.01238948	          9.29270474	        -23.63741527	          9.60525084	         31.16636997	        -50.64085777	         -3.11289838	         -3.47172163	         -3.24680906	         -3.24680612	          0.47550068	          0.62210112	          0.55444235	          0.63253792	          0.62468964	          0.55505719	          0.16586387	          0.13158007	          0.79636453	          0.15609200	          0.64868859	          0.26466827	          0.77852796	          0.71900942	          0.41581340	          0.31270412	          0.07026697	          0.87795217	
          0.77300538	         -1.51820127	          1.01768184	          1.00481197	          8.45659150	        -23.47877337	         12.06390926	         31.87082726	        -49.49939307	         -2.06251903	         -3.43440605	         -3.23493563	         -3.23493271	          0.44053639	          0.60905108	          0.57251672	          0.60089266	          0.65154763	          0.62397113	          0.19261530	          0.15187911	          0.74676193	          0.16935611	          0.65050941	          0.26899405	          0.76727187	          0.71025872	          0.40737762	          0.29761060	          0.06678100	          0.87777585	
          0.78051028	         -1.55760574	          1.02750517	          0.99728151	          7.67987090	        -23.43092668	         14.29849552	         32.47709718	        -48.12346591	         -1.14028654	         -3.40030992	         -3.22749067	         -3.22748735	          0.40348035	          0.58560413	          0.55629198	          0.61730482	          0.71179919	          0.69383348	          0.21014975	          0.15507602	          0.70748920	          0.16810507	          0.65747098	          0.28008643	          0.79208379	          0.71876446	          0.39376532	          0.28412380	          0.06430987	          0.87645731	
          0.78801519	         -1.59398565	          1.03722101	          0.99042011	          7.41548008	        -24.26300884	         16.18700764	         32.95486861	        -46.46404677	         -0.40435770	         -3.38537609	         -3.20501376	         -3.20501065	          0.36934173	          0.57233415	          0.52708982	          0.67943999	          0.75139587	          0.74220572	          0.23688140	          0.16434319	          0.66844205	          0.16186111	          0.66679532	          0.27298500	          0.79376186	          0.71842327	          0.39040992	          0.27335779	          0.06353027	          0.87128214	
          0.79552010	         -1.64351667	          1.04691909	          0.98440792	          7.65431135	        -25.92716258	         17.69355053	         33.32375982	        -44.62034829	          0.19121272	         -3.36091368	         -3.18383125	         -3.18382767	          0.33940782	          0.55730062	          0.51354912	          0.68457030	          0.77988871	          0.78409710	          0.27115932	          0.18833900	          0.62862175	          0.16733473	          0.65509528	          0.28583638	          0.77721205	          0.71186720	          0.40723766	          0.26822371	          0.06945979	          0.85266523	
          0.80302500	         -1.69714181	          1.05682536	          0.97910453	          8.00169880	        -27.75991629	         18.88405523	         33.60289304	        -42.81042990	          0.53665960	         -3.31130545	         -3.19373582	         -3.19373248	          0.31650017	          0.54298550	          0.50711390	          0.66845349	          0.79573120	          0.82286971	          0.30503872	          0.21522255	          0.58894661	          0.18521899	          0.64328818	          0.30471615	          0.74841568	          0.70071677	          0.43126290	          0.26745445	          0.07844324	          0.82462397	
          0.81052991	         -1.73961834	          1.06708198	          0.97442232	          8.19447442	        -29.34547579	         19.85105457	         33.80051676	        -41.27405093	          0.61937899	         -3.23787945	         -3.25124879	         -3.25124515	          0.29915743	          0.53076712	          0.50406157	          0.65211406	          0.80746736	          0.84800409	          0.34008531	          0.25059003	          0.54909636	          0.21800787	          0.63148143	          0.33182520	          0.71744635	          0.69145422	          0.46117700	          0.27119636	          0.09088852	          0.77696691	
          0.81803481	         -1.76740563	          1.07772630	          0.97034382	          8.16022271	        -30.57124280	         20.63585719	         33.96667439	        -40.47903755	          0.44950488	         -3.14036436	         -3.36061885	         -3.36061526	          0.29273745	          0.51973323	          0.51110548	          0.62947374	          0.81143291	          0.86227846	          0.37650134	          0.29483705	          0.50897746	          0.26005051	          0.61182611	          0.36630452	          0.67908825	          0.68394457	          0.50139732	          0.30273125	          0.13606139	          0.71058135	
          0.82553972	         -1.78152156	          1.08875222	          0.96691093	          7.89795642	        -31.42997227	         21.23160532	         34.13021057	        -40.86402141	          0.67368452	         -3.01816686	         -3.52093644	         -3.52093285	          0.29851337	          0.50923481	          0.52865211	          0.59336161	          0.80181598	          0.86845169	          0.41416134	          0.34377105	          0.46888105	          0.32115724	          0.59731202	          0.40061888	          0.63477224	          0.67482213	          0.55546568	          0.32455834	          0.16852517	          0.64037785	
          0.83304463	         -1.78753027	          1.10015456	          0.96423117	          7.41228160	        -31.90955235	         21.60432956	         34.15849526	        -41.93669376	          1.35795939	         -2.86525178	         -3.73239791	         -3.73239413	          0.30672732	          0.49905922	          0.55249835	          0.55586588	          0.79314395	          0.86275646	          0.45522101	          0.40167243	          0.42736286	          0.35298422	          0.57673598	          0.45791218	          0.58804567	          0.67328322	          0.64599858	          0.33068390	          0.18140477	          0.57171418	
          0.84054953	         -1.79630827	          1.11191657	          0.96241448	          6.70901133	        -31.98699482	         21.71548848	         33.87311428	        -42.75811021	          2.31512425	         -2.67047130	         -3.99466696	         -3.99466346	          0.30873794	          0.48642895	          0.55990029	          0.52160576	          0.79099234	          0.84262066	          0.50202924	          0.47289172	          0.38365065	          0.37511498	          0.55153194	          0.53199165	          0.53962934	          0.67406324	          0.73775200	          0.32127329	          0.17713814	          0.50898268	
          0.84805444	         -1.81212359	          1.12398013	          0.96151469	          5.80105598	        -31.66242801	         21.53590538	         33.24114644	        -43.03105865	          3.24203923	         -2.43486430	         -4.30007727	         -4.30007346	          0.30750706	          0.47378656	          0.53819834	          0.49666793	          0.79166484	          0.78632823	          0.55489502	          0.54746198	          0.34206454	          0.38793131	          0.52031377	          0.59768836	          0.48934160	          0.67802481	          0.81553069	          0.30861769	          0.18168430	          0.45292847	
          0.85555935	         -1.82885612	          1.13627498	          0.96153831	          4.71179957	        -30.97561387	         21.03931428	         32.29529278	        -42.82543116	          4.25956103	         -2.17284613	         -4.63698741	         -4.63698395	          0.30763829	          0.46393472	          0.50596164	          0.48209555	          0.78322932	          0.70760893	          0.61024945	          0.61394874	          0.30458120	          0.40216832	          0.48587006	          0.66940391	          0.44095310	          0.67939807	          0.86241227	          0.29384191	          0.20350511	          0.40295584	
          0.86306425	         -1.84307191	          1.14871001	          0.96246661	          3.49305344	        -30.01128676	         20.18774171	         31.08609323	        -42.19717411	          5.24163145	         -1.89796182	         -4.99144968	         -4.99144604	          0.32359588	          0.47161514	          0.46445813	          0.50246756	          0.75714638	          0.63027736	          0.66530763	          0.67582846	          0.27111188	          0.43463399	          0.45315082	          0.73184866	          0.39641617	          0.66778102	          0.87920523	          0.29145178	          0.31542458	          0.35846263	
          0.87056916	         -1.85591051	          1.16114442	          0.96430569	          2.26254956	        -28.96022146	         18.89956004	         29.70439451	        -41.24137915	          5.94713961	         -1.62402736	         -5.34355819	         -5.34355474	          0.32599226	          0.49359216	          0.42131887	          0.58396999	          0.73083414	          0.56111698	          0.71648709	          0.71960844	          0.24127169	          0.45568971	          0.42227327	          0.78707443	          0.35428023	          0.65773552	          0.87877388	          0.30861058	          0.50084783	          0.31886413	
          0.87807407	         -1.88627086	          1.17340596	          0.96707216	          1.18883991	        -28.05518011	         17.08882157	         28.28816600	        -40.10028488	          6.15390234	         -1.34748854	         -5.67293057	         -5.67292719	          0.31443701	          0.54572808	          0.37938983	          0.71951042	          0.71379798	          0.49966843	          0.76350621	          0.76566183	          0.21468603	          0.46731043	          0.39190973	          0.82094768	          0.31660741	          0.65895242	          0.87048483	          0.42499660	          0.64512438	          0.28364087	
